<mxfile host="app.diagrams.net" agent="Mozilla/5.0 (Windows NT 10.0; Win64; x64) AppleWebKit/537.36 (KHTML, like Gecko) Chrome/134.0.0.0 Safari/537.36 Edg/134.0.0.0" version="26.1.0">
  <diagram name="AST树示例" id="ELo0bsy4pIfNy_zSFlHs">
    <mxGraphModel dx="2066" dy="1107" grid="1" gridSize="10" guides="1" tooltips="1" connect="1" arrows="1" fold="1" page="1" pageScale="1" pageWidth="827" pageHeight="1169" math="0" shadow="0">
      <root>
        <mxCell id="0" />
        <mxCell id="1" parent="0" />
        <mxCell id="eCpK0iHq1OAFsNPNsnKg-70" value="StmtList" style="fillColor=#d5e8d4;strokeColor=#82b366;" vertex="1" parent="1">
          <mxGeometry x="320" y="20" width="120" height="30" as="geometry" />
        </mxCell>
        <mxCell id="eCpK0iHq1OAFsNPNsnKg-71" value="case_idx" style="ellipse;shape=ellipse;fillColor=#fff2cc;strokeColor=#d6b656;" vertex="1" parent="1">
          <mxGeometry x="355" y="80" width="50" height="50" as="geometry" />
        </mxCell>
        <mxCell id="eCpK0iHq1OAFsNPNsnKg-72" value="StmtList + Stmt" style="fillColor=#f8cecc;strokeColor=#b85450;" vertex="1" parent="1">
          <mxGeometry x="180" y="150" width="120" height="30" as="geometry" />
        </mxCell>
        <mxCell id="eCpK0iHq1OAFsNPNsnKg-73" value="Stmt" style="fillColor=#f8cecc;strokeColor=#b85450;" vertex="1" parent="1">
          <mxGeometry x="460" y="150" width="100" height="30" as="geometry" />
        </mxCell>
        <mxCell id="eCpK0iHq1OAFsNPNsnKg-86" style="edgeStyle=orthogonalEdgeStyle;rounded=0;orthogonalLoop=1;jettySize=auto;html=1;exitX=0.5;exitY=1;exitDx=0;exitDy=0;" edge="1" parent="1" source="eCpK0iHq1OAFsNPNsnKg-74">
          <mxGeometry relative="1" as="geometry">
            <mxPoint x="160" y="280" as="targetPoint" />
          </mxGeometry>
        </mxCell>
        <mxCell id="eCpK0iHq1OAFsNPNsnKg-74" value="StmtList" style="fillColor=#d5e8d4;strokeColor=#82b366;" vertex="1" parent="1">
          <mxGeometry x="120" y="220" width="80" height="30" as="geometry" />
        </mxCell>
        <mxCell id="eCpK0iHq1OAFsNPNsnKg-75" value="Stmt" style="fillColor=#d5e8d4;strokeColor=#82b366;" vertex="1" parent="1">
          <mxGeometry x="260" y="220" width="80" height="30" as="geometry" />
        </mxCell>
        <mxCell id="eCpK0iHq1OAFsNPNsnKg-76" value="Stmt" style="fillColor=#d5e8d4;strokeColor=#82b366;" vertex="1" parent="1">
          <mxGeometry x="460" y="220" width="100" height="30" as="geometry" />
        </mxCell>
        <mxCell id="eCpK0iHq1OAFsNPNsnKg-77" edge="1" parent="1" source="eCpK0iHq1OAFsNPNsnKg-70" target="eCpK0iHq1OAFsNPNsnKg-71">
          <mxGeometry relative="1" as="geometry" />
        </mxCell>
        <mxCell id="eCpK0iHq1OAFsNPNsnKg-78" style="dashed=1;" edge="1" parent="1" source="eCpK0iHq1OAFsNPNsnKg-71" target="eCpK0iHq1OAFsNPNsnKg-72">
          <mxGeometry relative="1" as="geometry" />
        </mxCell>
        <mxCell id="eCpK0iHq1OAFsNPNsnKg-79" style="dashed=1;" edge="1" parent="1" source="eCpK0iHq1OAFsNPNsnKg-71" target="eCpK0iHq1OAFsNPNsnKg-73">
          <mxGeometry relative="1" as="geometry" />
        </mxCell>
        <mxCell id="eCpK0iHq1OAFsNPNsnKg-80" edge="1" parent="1" source="eCpK0iHq1OAFsNPNsnKg-72" target="eCpK0iHq1OAFsNPNsnKg-74">
          <mxGeometry relative="1" as="geometry" />
        </mxCell>
        <mxCell id="eCpK0iHq1OAFsNPNsnKg-81" edge="1" parent="1" source="eCpK0iHq1OAFsNPNsnKg-72" target="eCpK0iHq1OAFsNPNsnKg-75">
          <mxGeometry relative="1" as="geometry" />
        </mxCell>
        <mxCell id="eCpK0iHq1OAFsNPNsnKg-82" edge="1" parent="1" source="eCpK0iHq1OAFsNPNsnKg-73" target="eCpK0iHq1OAFsNPNsnKg-76">
          <mxGeometry relative="1" as="geometry" />
        </mxCell>
        <mxCell id="eCpK0iHq1OAFsNPNsnKg-87" value="case_idx" style="ellipse;shape=ellipse;fillColor=#fff2cc;strokeColor=#d6b656;" vertex="1" parent="1">
          <mxGeometry x="135" y="280" width="50" height="50" as="geometry" />
        </mxCell>
        <mxCell id="eCpK0iHq1OAFsNPNsnKg-96" value="" style="endArrow=none;dashed=1;html=1;dashPattern=1 3;strokeWidth=2;rounded=0;" edge="1" parent="1">
          <mxGeometry width="50" height="50" relative="1" as="geometry">
            <mxPoint x="130" y="360" as="sourcePoint" />
            <mxPoint x="200" y="360" as="targetPoint" />
          </mxGeometry>
        </mxCell>
        <mxCell id="eCpK0iHq1OAFsNPNsnKg-100" value="" style="endArrow=none;dashed=1;html=1;dashPattern=1 3;strokeWidth=2;rounded=0;" edge="1" parent="1">
          <mxGeometry width="50" height="50" relative="1" as="geometry">
            <mxPoint x="265" y="280" as="sourcePoint" />
            <mxPoint x="335" y="280" as="targetPoint" />
          </mxGeometry>
        </mxCell>
        <mxCell id="eCpK0iHq1OAFsNPNsnKg-101" value="" style="endArrow=none;dashed=1;html=1;dashPattern=1 3;strokeWidth=2;rounded=0;" edge="1" parent="1">
          <mxGeometry width="50" height="50" relative="1" as="geometry">
            <mxPoint x="475" y="280" as="sourcePoint" />
            <mxPoint x="545" y="280" as="targetPoint" />
          </mxGeometry>
        </mxCell>
        <mxCell id="eCpK0iHq1OAFsNPNsnKg-102" value="&lt;font style=&quot;font-size: 22px;&quot;&gt;...&lt;/font&gt;" style="rounded=0;whiteSpace=wrap;html=1;" vertex="1" parent="1">
          <mxGeometry x="120" y="390" width="550" height="30" as="geometry" />
        </mxCell>
        <mxCell id="eCpK0iHq1OAFsNPNsnKg-108" value="bytes[0]" style="rounded=0;whiteSpace=wrap;html=1;fillColor=#fff2cc;strokeColor=#d6b656;" vertex="1" parent="1">
          <mxGeometry x="120" y="390" width="110" height="30" as="geometry" />
        </mxCell>
        <mxCell id="eCpK0iHq1OAFsNPNsnKg-110" value="" style="curved=1;endArrow=classic;html=1;rounded=0;exitX=0;exitY=0.5;exitDx=0;exitDy=0;entryX=0.5;entryY=0;entryDx=0;entryDy=0;" edge="1" parent="1">
          <mxGeometry width="50" height="50" relative="1" as="geometry">
            <mxPoint x="355" y="100" as="sourcePoint" />
            <mxPoint x="175" y="385" as="targetPoint" />
            <Array as="points">
              <mxPoint x="140" y="100" />
              <mxPoint x="100" y="110" />
              <mxPoint x="90" y="125" />
              <mxPoint x="70" y="165" />
              <mxPoint x="70" y="310" />
            </Array>
          </mxGeometry>
        </mxCell>
      </root>
    </mxGraphModel>
  </diagram>
</mxfile>
